<svg width="16" height="16" viewBox="0 0 16 16" fill="none" xmlns="http://www.w3.org/2000/svg">
<path d="M6.1875 9.5625C6.1875 9.71168 6.12824 9.85476 6.02275 9.96025C5.91726 10.0657 5.77418 10.125 5.625 10.125H2.8125C2.66332 10.125 2.52024 10.0657 2.41475 9.96025C2.30926 9.85476 2.25 9.71168 2.25 9.5625C2.25 9.41332 2.30926 9.27024 2.41475 9.16475C2.52024 9.05926 2.66332 9 2.8125 9H5.625C5.77418 9 5.91726 9.05926 6.02275 9.16475C6.12824 9.27024 6.1875 9.41332 6.1875 9.5625ZM10.6875 1.125H12.375C12.5242 1.125 12.6673 1.06574 12.7727 0.960248C12.8782 0.854758 12.9375 0.711684 12.9375 0.5625C12.9375 0.413316 12.8782 0.270242 12.7727 0.164752C12.6673 0.0592632 12.5242 0 12.375 0H10.125C9.97582 0 9.83274 0.0592632 9.72725 0.164752C9.62176 0.270242 9.5625 0.413316 9.5625 0.5625V2.8125H10.6875V1.125ZM15.75 7.03125V11.25C15.75 11.5484 15.6315 11.8345 15.4205 12.0455C15.2095 12.2565 14.9234 12.375 14.625 12.375H8.4375V14.625C8.4375 14.7742 8.37824 14.9173 8.27275 15.0227C8.16726 15.1282 8.02418 15.1875 7.875 15.1875C7.72582 15.1875 7.58274 15.1282 7.47725 15.0227C7.37176 14.9173 7.3125 14.7742 7.3125 14.625V12.375H1.125C0.826631 12.375 0.540483 12.2565 0.329505 12.0455C0.118526 11.8345 0 11.5484 0 11.25V7.03125C0.00130262 5.91277 0.446195 4.84047 1.23708 4.04958C2.02797 3.2587 3.10027 2.8138 4.21875 2.8125H9.5625V9C9.5625 9.14918 9.62176 9.29226 9.72725 9.39775C9.83274 9.50324 9.97582 9.5625 10.125 9.5625C10.2742 9.5625 10.4173 9.50324 10.5227 9.39775C10.6282 9.29226 10.6875 9.14918 10.6875 9V2.8125H11.5312C12.6497 2.8138 13.722 3.2587 14.5129 4.04958C15.3038 4.84047 15.7487 5.91277 15.75 7.03125ZM7.3125 7.03125C7.3125 6.21074 6.98655 5.42383 6.40636 4.84364C5.82617 4.26345 5.03926 3.9375 4.21875 3.9375C3.39824 3.9375 2.61133 4.26345 2.03114 4.84364C1.45095 5.42383 1.125 6.21074 1.125 7.03125V11.25H7.3125V7.03125Z" fill="black"/>
</svg>
